<?xml version="1.0" encoding="utf-8"?>
<!-- Generator: Adobe Illustrator 16.0.0, SVG Export Plug-In . SVG Version: 6.00 Build 0)  -->
<!DOCTYPE svg PUBLIC "-//W3C//DTD SVG 1.1//EN" "http://www.w3.org/Graphics/SVG/1.1/DTD/svg11.dtd">
<svg version="1.1" id="Layer_1" xmlns="http://www.w3.org/2000/svg" xmlns:xlink="http://www.w3.org/1999/xlink" x="0px" y="0px"
	 width="450.876px" height="291.856px" viewBox="0 0 450.876 291.856" enable-background="new 0 0 450.876 291.856"
	 xml:space="preserve">
<path fill="#EB4C3C" d="M-0.026,116.302v-0.811C-0.026,54.221,43.39,3.908,104.66,3.908c68.167,0,102.658,53.559,102.658,115.234
	c0,4.461-0.405,8.928-0.811,13.796H49.07c5.275,34.895,30.026,54.372,61.677,54.372c23.941,0,40.981-8.926,58.023-25.563
	l28.81,25.563c-20.289,24.343-48.286,40.172-87.645,40.172C47.853,227.481-0.026,182.44-0.026,116.302z M158.625,100.479
	c-3.246-31.648-21.91-56.4-54.372-56.4c-30.025,0-51.126,23.128-55.589,56.4H158.625z"/>
<path fill="#61BCBF" d="M0,277.113v-0.103c0-8.121,5.754-14.788,13.874-14.788c9.033,0,13.603,7.097,13.603,15.272
	c0,0.591-0.054,1.184-0.106,1.828H6.508c0.699,4.625,3.977,7.206,8.174,7.206c3.171,0,5.431-1.184,7.688-3.386l3.819,3.386
	c-2.691,3.228-6.4,5.327-11.616,5.327C6.344,291.849,0,285.879,0,277.113z M21.025,275.019c-0.43-4.196-2.904-7.477-7.205-7.477
	c-3.979,0-6.776,3.066-7.368,7.477H21.025z"/>
<path fill="#61BCBF" d="M34.033,262.81h6.507v4.358c1.829-2.634,4.463-4.948,8.873-4.948c6.401,0,10.111,4.301,10.111,10.861v18.121
	h-6.508v-16.131c0-4.407-2.204-6.938-6.076-6.938c-3.764,0-6.399,2.637-6.399,7.045v16.023h-6.507V262.81z"/>
<path fill="#61BCBF" d="M65.808,277.169v-0.109c0-8.063,6.239-14.84,14.789-14.84c5.324,0,8.657,1.987,11.345,4.893l-4.085,4.352
	c-1.99-2.089-4.086-3.544-7.313-3.544c-4.733,0-8.228,4.086-8.228,9.033v0.104c0,5.055,3.495,9.086,8.497,9.086
	c3.064,0,5.324-1.396,7.367-3.494l3.924,3.874c-2.795,3.119-6.075,5.325-11.614,5.325C72.047,291.849,65.808,285.232,65.808,277.169
	z"/>
<path fill="#61BCBF" d="M96.188,283.031v-0.107c0-6.131,4.785-9.143,11.723-9.143c3.173,0,5.431,0.483,7.636,1.184v-0.696
	c0-4.033-2.475-6.188-7.045-6.188c-3.172,0-5.538,0.7-8.12,1.775l-1.721-5.108c3.12-1.395,6.184-2.313,10.703-2.313
	c4.247,0,7.419,1.13,9.409,3.177c2.098,2.043,3.066,5.053,3.066,8.761v16.834h-6.345v-3.55c-1.936,2.311-4.895,4.137-9.25,4.137
	C100.918,291.793,96.188,288.729,96.188,283.031z M115.654,280.987v-1.938c-1.668-0.647-3.874-1.128-6.453-1.128
	c-4.196,0-6.668,1.774-6.668,4.731v0.104c0,2.744,2.419,4.304,5.539,4.304C112.372,287.063,115.654,284.591,115.654,280.987z"/>
<path fill="#61BCBF" d="M129.63,262.81h6.505v6.401c1.776-4.251,5.057-7.154,10.057-6.938v6.883h-0.376
	c-5.7,0-9.681,3.709-9.681,11.239v10.808h-6.505V262.81L129.63,262.81z"/>
<path fill="#61BCBF" d="M151.834,262.81h6.507v4.358c1.829-2.634,4.462-4.948,8.872-4.948c6.399,0,10.109,4.301,10.109,10.861
	v18.121h-6.505v-16.131c0-4.407-2.206-6.938-6.078-6.938c-3.763,0-6.398,2.637-6.398,7.045v16.023h-6.507V262.81L151.834,262.81z"/>
<path fill="#61BCBF" d="M183.286,283.031v-0.107c0-6.131,4.787-9.143,11.723-9.143c3.173,0,5.433,0.483,7.635,1.184v-0.696
	c0-4.033-2.473-6.188-7.044-6.188c-3.172,0-5.539,0.7-8.119,1.775l-1.721-5.108c3.118-1.395,6.183-2.313,10.7-2.313
	c4.25,0,7.423,1.13,9.411,3.177c2.096,2.043,3.064,5.053,3.064,8.761v16.834h-6.345v-3.55c-1.936,2.311-4.894,4.137-9.25,4.137
	C188.019,291.793,183.286,288.729,183.286,283.031z M202.753,280.987v-1.938c-1.667-0.647-3.872-1.128-6.452-1.128
	c-4.195,0-6.669,1.774-6.669,4.731v0.104c0,2.744,2.42,4.304,5.539,4.304C199.472,287.063,202.753,284.591,202.753,280.987z"/>
<path fill="#61BCBF" d="M215.17,277.169v-0.109c0-8.063,6.237-14.84,14.788-14.84c5.323,0,8.657,1.987,11.348,4.893l-4.088,4.352
	c-1.99-2.089-4.087-3.544-7.311-3.544c-4.736,0-8.23,4.086-8.23,9.033v0.104c0,5.055,3.495,9.086,8.496,9.086
	c3.064,0,5.325-1.396,7.366-3.494l3.926,3.874c-2.792,3.119-6.075,5.325-11.614,5.325
	C221.407,291.849,215.17,285.232,215.17,277.169z"/>
<path fill="#61BCBF" d="M247.537,252.271h6.992v6.185h-6.992V252.271z M247.807,262.81h6.509v28.393h-6.509V262.81z"/>
<path fill="#61BCBF" d="M261.247,277.169v-0.109c0-8.117,6.45-14.84,15.164-14.84c8.708,0,15.11,6.61,15.11,14.733v0.104
	c0,8.066-6.453,14.789-15.218,14.789C267.646,291.849,261.247,285.232,261.247,277.169z M285.014,277.169v-0.109
	c0-5-3.604-9.137-8.707-9.137c-5.219,0-8.552,4.087-8.552,9.034v0.103c0,4.949,3.6,9.088,8.656,9.088
	C281.681,286.147,285.014,282.061,285.014,277.169z M279.369,250.388l5.915,2.639l-6.616,6.182h-4.893L279.369,250.388z"/>
<path fill="#61BCBF" d="M298.131,262.81h6.508v4.358c1.828-2.634,4.464-4.948,8.877-4.948c6.396,0,10.105,4.301,10.105,10.861
	v18.121h-6.505v-16.131c0-4.407-2.207-6.938-6.077-6.938c-3.764,0-6.4,2.637-6.4,7.045v16.023h-6.508V262.81L298.131,262.81z"/>
<path fill="#61BCBF" d="M347.596,262.81h6.508v4.303c1.827-2.527,4.301-4.893,8.659-4.893c4.085,0,6.988,1.987,8.494,5
	c2.258-3.013,5.272-5,9.577-5c6.183,0,9.945,3.924,9.945,10.861v18.121h-6.507v-16.131c0-4.516-2.095-6.938-5.75-6.938
	c-3.557,0-6.078,2.473-6.078,7.045v16.023h-6.511v-16.186c0-4.41-2.146-6.886-5.75-6.886c-3.606,0-6.077,2.689-6.077,7.044V291.2
	h-6.508L347.596,262.81L347.596,262.81z"/>
<path fill="#61BCBF" d="M396.788,283.031v-0.107c0-6.131,4.789-9.143,11.727-9.143c3.174,0,5.432,0.483,7.635,1.184v-0.696
	c0-4.033-2.474-6.188-7.046-6.188c-3.171,0-5.537,0.7-8.115,1.775l-1.723-5.108c3.12-1.395,6.188-2.313,10.701-2.313
	c4.246,0,7.418,1.13,9.411,3.177c2.095,2.043,3.063,5.053,3.063,8.761v16.834h-6.343v-3.55c-1.938,2.311-4.896,4.137-9.252,4.137
	C401.522,291.793,396.788,288.729,396.788,283.031z M416.261,280.987v-1.938c-1.668-0.647-3.875-1.128-6.457-1.128
	c-4.196,0-6.664,1.774-6.664,4.731v0.104c0,2.744,2.417,4.304,5.537,4.304C412.978,287.063,416.261,284.591,416.261,280.987z
	 M413.407,250.388l5.916,2.639l-6.616,6.182h-4.893L413.407,250.388z"/>
<path fill="#61BCBF" d="M427.923,287.492l2.9-4.41c3.12,2.313,6.402,3.497,9.306,3.497c2.796,0,4.41-1.188,4.41-3.065v-0.107
	c0-2.208-3.015-2.957-6.345-3.98c-4.193-1.182-8.871-2.905-8.871-8.337v-0.103c0-5.375,4.455-8.655,10.104-8.655
	c3.55,0,7.421,1.234,10.433,3.225l-2.585,4.624c-2.738-1.667-5.645-2.689-8.014-2.689c-2.528,0-3.977,1.187-3.977,2.798v0.104
	c0,2.099,3.066,2.96,6.399,4.033c4.139,1.291,8.816,3.175,8.816,8.286v0.104c0,5.967-4.623,8.924-10.539,8.924
	C435.933,291.739,431.47,290.289,427.923,287.492z"/>
<path fill="#61BCBF" d="M335.189,0c-63.903,0-115.711,51.787-115.711,115.681c0,24.953,7.93,48.049,21.37,66.95l-11.654,44.877
	l44.61-13.756c17.795,11.163,38.827,17.634,61.385,17.634c63.898,0,115.687-51.797,115.687-115.705
	C450.876,51.789,399.088,0,335.189,0z M380.885,129.57h-39.419V168.8h-14.28V129.57h-39.422v-13.708h39.422V76.634h14.28v39.229
	h39.419V129.57L380.885,129.57z"/>
</svg>
